<svg width="50" height="50" viewBox="0 0 50 50" fill="none" xmlns="http://www.w3.org/2000/svg">
<g clip-path="url(#clip0_2209_401)">
<path d="M24.5 47C36.3741 47 46 37.3741 46 25.5C46 13.6259 36.3741 4 24.5 4C12.6259 4 3 13.6259 3 25.5C3 37.3741 12.6259 47 24.5 47Z" fill="#26394D" stroke="#1A2633" stroke-width="5"/>
<path d="M26.0128 42.666C26.3648 41.962 26.6838 41.258 26.9698 40.554C27.2558 39.872 27.3988 39.223 27.3988 38.607C27.3988 38.277 27.3438 37.98 27.2338 37.716C27.1238 37.452 26.8708 37.199 26.4748 36.957C26.1008 36.737 25.4738 36.539 24.5938 36.363C22.9878 36.011 21.6238 35.56 20.5018 35.01C19.4018 34.46 18.5658 33.745 17.9938 32.865C17.4218 31.963 17.1358 30.83 17.1358 29.466C17.1358 28.278 17.3558 27.244 17.7958 26.364C18.2358 25.484 18.8298 24.758 19.5778 24.186C20.3258 23.614 21.1618 23.207 22.0858 22.965V22.767C21.2498 22.547 20.5458 22.239 19.9738 21.843C19.4018 21.425 18.9728 20.908 18.6868 20.292C18.4008 19.676 18.2578 18.95 18.2578 18.114C18.2578 17.08 18.4778 16.233 18.9178 15.573C19.3798 14.891 19.9738 14.341 20.6998 13.923C21.4478 13.505 22.2618 13.175 23.1418 12.933C22.8778 12.955 22.5258 12.988 22.0858 13.032C21.6458 13.054 21.1728 13.076 20.6668 13.098C20.1608 13.12 19.6548 13.131 19.1488 13.131H18.1258V10.92H30.4018V12.966H29.5438C28.3998 12.966 27.3108 13.043 26.2768 13.197C25.2648 13.351 24.3628 13.615 23.5708 13.989C22.8008 14.363 22.1848 14.869 21.7228 15.507C21.2828 16.145 21.0628 16.937 21.0628 17.883C21.0628 18.631 21.2388 19.291 21.5908 19.863C21.9428 20.435 22.5148 20.886 23.3068 21.216C24.0988 21.546 25.1438 21.711 26.4418 21.711H30.0058V23.922H26.3428C24.8028 23.922 23.5708 24.164 22.6468 24.648C21.7448 25.11 21.0958 25.726 20.6998 26.496C20.3038 27.266 20.1058 28.124 20.1058 29.07C20.1058 30.104 20.3038 30.918 20.6998 31.512C21.0958 32.106 21.7338 32.579 22.6138 32.931C23.4938 33.283 24.6488 33.635 26.0788 33.987C27.2448 34.251 28.1248 34.57 28.7188 34.944C29.3348 35.318 29.7528 35.747 29.9728 36.231C30.1928 36.715 30.3028 37.254 30.3028 37.848C30.3028 38.486 30.2368 39.069 30.1048 39.597C29.9948 40.147 29.8298 40.664 29.6098 41.148C29.3898 41.632 29.1478 42.138 28.8838 42.666H26.0128Z" fill="#E6AC73"/>
</g>
<defs>
<clipPath id="clip0_2209_401">
<rect width="50" height="50" fill="white"/>
</clipPath>
</defs>
</svg>
